<svg
        height="100"
        viewBox="0 0 2005 877"
        fill="none"
        xmlns="http://www.w3.org/2000/svg"
>
    <g clip-path="url(#clip0_334_1613)">
        <rect
                x="151.759"
                y="159.36"
                width="606"
                height="567"
                rx="165"
                fill="white"
        />
        <path
                fill-rule="evenodd"
                clip-rule="evenodd"
                d="M457.294 726.494C439.868 726.494 422.443 726.481 405.018 726.468H405.016C355.232 726.43 305.451 726.392 255.686 726.662C243.385 726.718 231.977 724.005 220.878 719.587C196.051 709.716 177.571 692.602 164.235 669.476C159.707 661.615 157.409 653.206 155.088 644.714C154.585 642.876 154.082 641.033 153.554 639.192C150.91 629.998 150.942 620.737 150.975 611.427C150.978 610.401 150.982 609.375 150.982 608.348C150.982 572.472 150.979 536.592 150.976 500.712C150.97 428.948 150.963 357.18 150.982 285.425C150.982 265.543 156.574 247.143 166.695 230.141C178.577 210.147 195.24 195.242 216.265 185.455C238.045 175.304 259.964 165.377 282.079 155.953C291.361 152.011 301.37 150.333 311.687 150.361C370.18 150.428 428.673 150.435 487.166 150.441C526.164 150.446 565.161 150.45 604.159 150.473C614.671 150.473 624.652 153.521 634.13 157.659C654.819 166.635 675.369 175.891 695.834 185.315C725.889 199.157 746.131 221.919 756.336 253.378C758.992 261.6 760.614 270.017 760.614 278.937C760.39 393 760.306 507.036 760.614 621.099C760.67 638.8 756.224 654.935 747.781 670.035C733.438 695.706 712.078 713.183 684.12 722.439C683.231 722.731 682.683 722.943 682.16 723.144C681.532 723.386 680.941 723.613 679.842 723.949C679.504 724.126 679.119 724.233 678.546 724.392L678.544 724.392C678.027 724.536 677.358 724.722 676.431 725.04C675.193 725.257 674.299 725.427 673.496 725.58C672.54 725.762 671.713 725.92 670.588 726.102C668.687 726.41 666.73 726.494 664.828 726.494C595.631 726.522 526.463 726.522 457.266 726.522L457.294 726.494ZM455.7 178.408C441.887 178.408 428.074 178.404 414.261 178.399C379.734 178.388 345.207 178.376 310.68 178.436C296.645 178.464 284.343 183.442 273.775 192.753C259.265 205.561 254.652 222.395 254.624 240.795C254.512 330.837 254.512 420.908 254.763 510.951C254.763 518.753 256.022 526.834 258.398 534.272C266.003 558.125 287.614 572.555 313.476 572.638C367.56 572.786 421.635 572.77 475.712 572.754H475.712H475.773C513.925 572.743 552.078 572.732 590.236 572.778C598.679 572.778 607.095 572.75 615.035 569.954C621.325 567.745 627.812 565.312 633.18 561.509C649.899 549.68 656.665 532.399 656.804 512.545C656.967 489.638 656.872 466.719 656.778 443.804C656.726 431.305 656.674 418.806 656.664 406.311C656.636 354.243 656.609 302.175 656.72 250.107L656.721 249.317C656.722 240.5 656.724 231.808 654.959 223.038C649.843 197.647 626.973 178.436 601.056 178.436H455.672L455.7 178.408ZM235.277 695.147C243.13 698.709 251.601 698.631 260.095 698.553L260.114 698.553C261.35 698.542 262.587 698.53 263.822 698.53H653.114C653.557 698.53 654.003 698.518 654.449 698.506H654.45C655.523 698.477 656.597 698.448 657.643 698.586C664.206 699.407 670.276 697.547 676.649 695.594C677.012 695.483 677.376 695.371 677.741 695.26C677.956 695.194 678.172 695.128 678.388 695.063C678.27 694.718 678.163 694.375 678.057 694.038C677.811 693.256 677.574 692.503 677.242 691.819C674.825 686.831 672.391 681.847 669.956 676.862L669.948 676.846C666.162 669.094 662.375 661.34 658.65 653.565C649.619 634.69 640.645 615.786 631.782 596.855C630.747 594.646 629.657 594.058 627.504 595.065C617.998 599.455 607.766 600.574 597.589 600.602C503.051 600.77 408.514 600.714 313.949 600.658L313.812 600.658C309.87 600.658 305.871 600.322 302.013 599.539C297.249 598.562 292.541 597.344 287.84 596.127C285.948 595.637 284.056 595.147 282.163 594.674C280.094 594.17 278.5 594.059 277.41 596.603C269.749 614.807 262.005 632.984 254.204 651.16C249.888 661.253 245.532 671.333 241.182 681.399C239.192 686.003 237.203 690.604 235.221 695.203L235.277 695.147ZM680.513 208.581C680.654 209.472 680.746 210.084 680.816 210.555C680.885 211.015 680.933 211.339 680.988 211.657C683.029 222.395 685.042 233.049 685.014 244.123C684.888 310.404 684.904 376.67 684.92 442.944V442.947C684.925 465.082 684.931 487.219 684.931 509.357C684.931 522.024 682.973 534.412 678.388 546.213C676.878 550.128 677.102 552.561 679.646 556.056C690.628 571.042 701.42 586.173 712.213 601.303L712.222 601.316C716.43 607.214 720.637 613.113 724.855 619.002C726.085 620.725 727.35 622.431 728.615 624.139L728.618 624.142C729.652 625.537 730.687 626.934 731.705 628.342L732.46 628.006V622.525V285.313C732.46 284.018 732.501 282.712 732.542 281.405V281.403C732.649 278.024 732.757 274.633 732.152 271.387C727.958 248.764 715.88 231.064 697.232 217.893C693.939 215.567 690.324 213.711 686.486 211.741C684.557 210.751 682.571 209.731 680.541 208.609L680.513 208.581ZM178.885 629.153L179.975 629.74C180.525 629.08 181.091 628.43 181.656 627.78L181.657 627.779C182.959 626.282 184.26 624.787 185.371 623.169C192.493 612.684 199.598 602.188 206.704 591.692C215.443 578.783 224.182 565.873 232.956 552.98C234.214 551.134 234.326 549.624 233.515 547.527C229.042 536.174 226.554 524.261 226.526 512.153C226.363 435.815 226.394 359.476 226.425 283.138C226.431 267.812 226.437 252.486 226.442 237.16C226.442 235.062 226.554 232.965 226.917 230.924C227.947 225.048 229.055 219.212 230.209 213.135L230.21 213.13C230.434 211.949 230.66 210.76 230.887 209.56C230.435 209.786 230.007 210.004 229.595 210.214C228.683 210.679 227.848 211.104 227.001 211.489C226.487 211.72 225.962 211.927 225.436 212.134C224.56 212.479 223.684 212.824 222.863 213.279C194.597 228.994 179.304 253.434 179.136 285.369C178.712 368.241 178.784 451.129 178.857 534.02C178.885 565.721 178.913 597.423 178.913 629.125L178.885 629.153ZM662.005 573.393C661.104 574.149 660.227 574.873 659.37 575.58C657.087 577.465 654.951 579.228 652.918 581.139C652.359 581.671 652.219 583.265 652.583 584.075C653.557 586.32 654.653 588.504 655.751 590.691L655.752 590.693C656.322 591.83 656.893 592.967 657.447 594.114C671.371 623.001 685.294 651.915 699.189 680.801C700.196 682.927 701.342 683.402 703.048 681.473C704.585 679.749 706.119 678.022 707.652 676.294L707.658 676.288C711.896 671.514 716.135 666.738 720.466 662.038C722.479 659.857 722.59 657.955 720.857 655.606C716.495 649.706 712.19 643.778 707.94 637.821C694.625 619.196 681.352 600.57 667.973 581.797L667.926 581.731L662.005 573.421V573.393ZM213.761 682.707C213.566 683.009 213.347 683.347 213.107 683.745C205.151 677.85 198.729 671.006 193.087 663.436C190.963 660.612 191.242 657.732 193.311 654.739C203.859 639.405 214.351 624.057 224.847 608.705L224.875 608.664C229.337 602.137 233.8 595.609 238.268 589.081C240.53 585.782 242.781 582.484 245.141 579.027C246.601 576.887 248.103 574.686 249.675 572.387C250.366 573.114 251.044 573.817 251.707 574.505C253.594 576.462 255.366 578.3 257 580.244C257.448 580.804 257.196 582.23 256.833 583.069C252.737 592.562 248.62 602.042 244.503 611.521L244.5 611.529C240.384 621.006 236.268 630.483 232.173 639.975C228.224 649.141 224.325 658.332 220.426 667.523C218.473 672.127 216.519 676.731 214.56 681.333C214.368 681.769 214.1 682.183 213.762 682.705L213.761 682.707ZM349.598 399.684L409.373 368.085V366.463L349.598 334.865V307.069L436.157 353.377V381.172L349.598 427.48V399.684ZM465.346 442.972V467.328H561.97V442.972H465.346Z"
                fill="black"
        />
    </g>
    <path
            d="M1459.21 501.906C1459.21 496.033 1459.21 490.58 1459.21 485.155C1459.21 476.766 1459.26 468.377 1459.15 459.988C1459.15 457.863 1459.77 456.828 1461.92 456.493C1468.91 455.346 1475.87 454.004 1482.86 452.858C1485.38 452.438 1484.96 454.452 1484.96 455.878C1484.96 461.47 1484.9 467.063 1484.9 472.656C1484.9 512.504 1484.9 552.324 1484.96 592.172C1484.96 594.213 1484.68 595.919 1482.39 596.478C1465.16 600.701 1447.83 603.385 1430.35 598.408C1416.85 594.577 1408.35 585.013 1404.21 571.982C1399.15 556.015 1399.46 539.768 1404.74 523.913C1412.99 499.165 1435.5 493.349 1455.94 500.787C1456.89 501.123 1457.81 501.458 1459.18 501.962L1459.21 501.906ZM1459.21 578.246V574.275C1459.21 560.545 1459.21 546.815 1459.21 533.113C1459.21 522.431 1458.17 521.256 1447.41 519.914C1438.91 518.852 1432.12 522.431 1429.52 530.484C1425.38 543.236 1425.46 556.099 1430.63 568.655C1432.76 573.8 1436.56 577.575 1442.21 578.162C1447.69 578.722 1453.28 578.274 1459.21 578.274V578.246Z"
            fill="black"
    />
    <path
            d="M1790.07 346.345C1789.98 355.768 1795.02 361.361 1802.9 364.661C1813.36 369.051 1824.09 367.96 1834.77 365.639C1837.26 365.108 1839.72 364.381 1842.12 363.542C1844.39 362.731 1845.62 363.123 1846.01 365.695C1846.77 370.981 1847.83 376.238 1848.44 381.551C1848.58 382.669 1847.66 384.739 1846.82 384.99C1830.66 389.94 1814.28 391.701 1797.67 387.227C1778.8 382.11 1766.44 367.876 1764.09 348.274C1762.28 333.174 1764.29 318.773 1773.04 305.881C1786.38 286.167 1814.84 280.043 1835.11 292.571C1846.26 299.45 1851.44 310.16 1853.34 322.575C1854.37 329.343 1854.34 336.25 1854.87 343.101C1855.07 345.646 1854.23 346.512 1851.55 346.512C1832.23 346.372 1812.91 346.4 1793.56 346.373C1792.41 346.373 1791.27 346.373 1790.07 346.373V346.345ZM1790.35 328.616H1829.38C1830.07 317.626 1821.86 307.447 1809.75 307.811C1798.12 308.146 1790.07 316.34 1790.37 328.616H1790.35Z"
            fill="black"
    />
    <path
            d="M1612.98 557.637H1548.9C1547.75 564.292 1550.94 568.822 1555.47 572.597C1560.19 576.512 1565.92 577.966 1571.96 578.47C1581.86 579.309 1591.42 577.659 1600.87 574.862C1601.54 574.667 1602.19 574.443 1602.89 574.331C1603.33 574.247 1603.81 574.331 1604.03 574.359C1604.93 580.315 1605.68 586.16 1606.69 591.976C1607.19 594.968 1606.3 596.227 1603.22 597.01C1588.04 600.897 1572.86 602.463 1557.37 598.799C1538.16 594.297 1524.21 578.526 1522.14 558.867C1520.66 544.941 1522.31 531.687 1529.72 519.55C1543.98 496.117 1572.08 492.202 1592.35 503.136C1600.09 507.33 1605.26 513.986 1608.51 522.179C1613.01 533.476 1612.95 545.305 1613.03 557.637H1612.98ZM1587.82 540.076C1588.38 533.644 1586.73 528.247 1582.31 523.969C1575.88 517.733 1568.13 517.258 1560.25 520.334C1552.48 523.382 1549.76 530.428 1548.2 537.923C1548.09 538.482 1549.4 539.992 1550.07 539.992C1562.51 540.132 1574.93 540.076 1587.82 540.076Z"
            fill="black"
    />
    <path
            d="M1713.63 598.715V594.437C1713.63 574.863 1713.63 555.288 1713.63 535.714C1713.63 533.644 1713.38 531.519 1713.01 529.478C1711.36 520.334 1709.8 519.607 1700.07 520.501C1698 520.697 1697.25 521.592 1697.41 523.941C1698.11 534.986 1698.42 546.032 1699.06 557.078C1699.23 560.154 1698.28 561.16 1695.15 561.049C1689.36 560.825 1683.55 560.993 1677.34 560.993C1677.34 552.212 1677.39 544.103 1677.31 535.993C1677.28 533.001 1677.25 529.897 1676.58 526.989C1675.16 520.865 1670.29 518.376 1664.37 520.641C1663.47 520.977 1662.8 523.018 1662.77 524.276C1662.6 534.539 1662.6 544.774 1662.6 555.036C1662.6 568.431 1662.6 581.825 1662.74 595.22C1662.77 597.932 1662.07 598.911 1659.19 598.771C1654.19 598.52 1649.18 598.659 1644.18 598.771C1642.22 598.799 1641.61 598.156 1641.61 596.143C1641.66 566.194 1641.66 536.273 1641.61 506.324C1641.61 504.199 1642.25 503.108 1644.43 502.772C1652.6 501.514 1660.7 500.004 1668.87 498.941C1675.55 498.075 1681.84 499.613 1687.52 503.304C1689.14 504.366 1690.37 504.478 1692.21 503.388C1699.73 498.969 1707.81 497.627 1716.4 499.78C1725.12 501.961 1730.24 507.778 1732.22 516.195C1733.51 521.592 1734.35 527.213 1734.43 532.749C1734.71 553.359 1734.54 573.996 1734.68 594.605C1734.68 597.681 1734.01 598.995 1730.57 598.771C1725.15 598.436 1719.67 598.688 1713.66 598.688L1713.63 598.715Z"
            fill="black"
    />
    <path
            d="M1763.9 499.64C1772.23 499.64 1780.25 499.64 1788.28 499.64C1790.82 499.64 1790.77 501.57 1791.24 503.22C1796.11 519.718 1800.86 536.245 1805.89 552.687C1807.43 557.665 1809.72 562.391 1812.04 568.179C1813.86 561.58 1815.62 555.875 1817.02 550.059C1820.85 534.12 1824.46 518.152 1828.29 502.213C1828.51 501.234 1829.74 499.752 1830.52 499.752C1838.52 499.557 1846.51 499.64 1854.99 499.64C1854.15 502.66 1853.48 505.233 1852.72 507.75C1845.98 529.981 1839.8 552.436 1832.23 574.387C1827.59 587.838 1821.46 600.897 1814.84 613.508C1805.58 631.181 1790.12 636.885 1770.3 633.306C1767.78 632.859 1765.32 632.16 1762.84 631.6C1760.77 631.125 1759.98 630.007 1760.51 627.797C1761.77 622.596 1762.92 617.367 1763.98 612.138C1764.4 610.069 1765.21 609.397 1767.34 610.124C1769.74 610.935 1772.23 611.69 1774.75 611.97C1788.28 613.536 1792.92 608.279 1798.29 596.926C1799.01 595.388 1797.92 592.675 1797.08 590.746C1793.03 581.35 1788.14 572.262 1784.7 562.67C1777.57 542.788 1771.14 522.626 1764.43 502.577C1764.15 501.738 1764.07 500.843 1763.84 499.696L1763.9 499.64Z"
            fill="black"
    />
    <path
            d="M1402.87 327.525C1403.57 315.948 1397.28 308.174 1386.29 307.866C1377.43 307.615 1368.59 307.726 1359.98 310.159C1357.66 310.83 1356.46 310.355 1356.1 307.838C1355.37 302.777 1354.42 297.744 1353.83 292.654C1353.72 291.703 1354.84 289.858 1355.62 289.718C1369.94 286.922 1384.36 284.545 1398.9 287.453C1416.6 290.976 1426.11 301.575 1426.83 319.863C1427.67 340.668 1427.45 361.528 1427.56 382.389C1427.56 383.48 1426.3 385.353 1425.38 385.521C1406.81 389.156 1388.11 391.645 1369.24 388.262C1346.84 384.235 1335.97 358.033 1349.22 340.22C1355.34 331.999 1364.35 328.503 1374.05 327.692C1383.58 326.909 1393.23 327.525 1402.87 327.525ZM1402.65 368.519C1402.65 361.528 1402.65 354.817 1402.65 348.078C1402.65 345.701 1401.5 344.89 1399.15 344.946C1394.04 345.086 1388.89 344.806 1383.78 345.058C1381.04 345.198 1378.24 345.813 1375.64 346.764C1371.11 348.413 1368.99 352.189 1369.18 357.25C1369.38 362.311 1371.81 365.975 1376.23 367.401C1384.95 370.197 1393.81 369.806 1402.62 368.519H1402.65Z"
            fill="black"
    />
    <path
            d="M1086.61 327.973C1086.27 325.204 1086.16 322.855 1085.68 320.618C1084.06 313.068 1078.19 308.174 1070.22 307.951C1060.91 307.699 1051.6 307.503 1042.52 310.327C1041.85 310.523 1040.11 309.489 1039.94 308.789C1038.8 303.337 1037.82 297.828 1037.06 292.319C1036.95 291.564 1038.24 290.026 1039.08 289.83C1054.04 286.447 1069.16 284.545 1084.37 287.929C1100.61 291.536 1109.39 302.358 1110.15 320.73C1110.99 341.199 1110.79 361.696 1111.04 382.166C1111.07 384.375 1110.29 385.41 1107.94 385.829C1091.05 389.017 1074.11 391.114 1056.94 388.905C1051.85 388.262 1046.63 386.752 1041.99 384.571C1031.89 379.789 1028.06 370.673 1027.34 360.103C1026.16 343.325 1035.53 332.027 1053.5 328.28C1063.54 326.183 1073.63 326.602 1083.73 327.833C1084.51 327.916 1085.29 327.944 1086.58 328L1086.61 327.973ZM1086.13 357.474C1086.13 357.474 1085.99 357.474 1085.94 357.474C1085.94 354.342 1086.08 351.182 1085.85 348.05C1085.77 347.072 1084.71 345.31 1084.12 345.31C1076.37 345.394 1068.55 345.114 1060.91 346.233C1054.82 347.128 1052.33 351.238 1052.44 356.859C1052.55 362.871 1055.35 367.093 1061.47 367.876C1068.99 368.855 1076.71 368.603 1084.31 368.715C1084.9 368.715 1085.99 367.317 1086.05 366.506C1086.24 363.486 1086.13 360.466 1086.13 357.446V357.474Z"
            fill="black"
    />
    <path
            d="M1296.71 521.956C1295.51 515.552 1294.34 509.54 1293.33 503.472C1293.22 502.772 1294.06 501.346 1294.67 501.207C1310.19 497.711 1325.87 495.166 1341.62 499.305C1358.14 503.639 1366.44 514.853 1366.89 532.973C1367.36 552.995 1367.42 573.017 1367.5 593.039C1367.5 594.241 1366.25 596.367 1365.27 596.562C1345.92 600.477 1326.38 603.469 1306.83 598.688C1288.24 594.158 1279.02 576.261 1285.36 558.14C1288.58 548.968 1295.65 543.683 1304.63 540.831C1315.95 537.196 1327.55 537.391 1339.18 538.957C1343.15 539.489 1343.15 539.573 1342.76 535.574C1341.78 525.227 1337.11 520.25 1326.83 518.963C1317.35 517.789 1308.06 519.383 1298.84 521.48C1298.28 521.592 1297.75 521.704 1296.71 521.928V521.956ZM1342.71 556.574C1333.7 555.987 1325.26 555.176 1316.96 557.385C1311.39 558.867 1308.93 562.419 1308.88 567.732C1308.79 573.353 1311.22 576.764 1316.7 578.694C1324.36 581.378 1332.28 580.791 1340.13 580.176C1341.06 580.092 1342.59 578.61 1342.62 577.743C1342.82 570.92 1342.73 564.069 1342.73 556.574H1342.71Z"
            fill="black"
    />
    <path
            d="M1102.85 539.321C1102.07 535.713 1101.62 532.61 1100.73 529.645C1099.1 524.276 1095.27 521.172 1089.96 519.718C1081.49 517.425 1073.1 519.019 1064.69 520.082C1062.62 520.333 1060.52 520.669 1058.54 521.256C1056.41 521.872 1055.57 521.2 1055.24 519.075C1054.48 514.126 1053.48 509.232 1052.86 504.282C1052.75 503.332 1053.73 501.43 1054.51 501.262C1070.59 497.403 1086.77 495.138 1103.07 499.892C1117.33 504.059 1124.35 514.377 1125.75 528.555C1126.62 537.224 1126.45 545.976 1126.5 554.701C1126.62 567.508 1126.48 580.315 1126.59 593.123C1126.59 595.555 1125.92 596.618 1123.48 597.038C1104.39 600.365 1085.24 603.245 1066 598.715C1043.19 593.346 1039.94 571.004 1045.34 556.686C1048.36 548.689 1055.01 544.075 1062.9 541.306C1072.4 537.951 1082.22 537.419 1092.17 538.286C1095.58 538.594 1098.99 538.929 1102.88 539.321H1102.85ZM1102.26 556.63C1093.29 555.931 1084.73 555.176 1076.35 557.441C1070.92 558.895 1068.13 562.838 1068.04 567.76C1067.96 572.709 1070.87 576.82 1076.07 578.693C1083.95 581.546 1092.09 580.791 1100.17 580.064C1100.92 580.008 1102.18 578.693 1102.18 577.938C1102.35 570.975 1102.26 564.041 1102.26 556.63Z"
            fill="black"
    />
    <path
            d="M1599.22 286.279C1621.14 286.279 1639.51 302.106 1643.68 324.701C1645.89 336.697 1645.44 348.554 1641.1 360.103C1633.86 379.342 1617.62 390.639 1597.74 390.331C1577.97 390.024 1561.79 378.139 1555.33 358.788C1550.8 345.254 1550.69 331.552 1555.13 317.962C1561.62 298.135 1578.25 286.307 1599.22 286.279ZM1618.77 337.9C1619.07 337.816 1619.38 337.76 1619.69 337.676C1618.21 331.412 1617.26 324.924 1615.08 318.912C1612.7 312.453 1607.53 308.873 1600.34 308.482C1592.74 308.062 1586.22 310.328 1582.73 317.29C1575.65 331.356 1575.57 345.981 1582.95 359.795C1589.21 371.484 1607.47 370.701 1613.93 359.04C1617.56 352.469 1618.93 345.338 1618.77 337.9Z"
            fill="black"
    />
    <path
            d="M1496.08 310.076C1496.08 312.592 1496.08 314.662 1496.08 316.731C1496 327.693 1495.92 338.626 1495.86 349.588C1495.86 350.063 1495.86 350.511 1495.89 350.986C1496.34 363.961 1500.31 367.681 1513.22 367.569C1520.88 367.513 1528.21 366.198 1535.81 362.479C1536.62 367.261 1537.44 371.651 1538.11 376.07C1539.45 384.654 1539.45 384.822 1530.95 387.003C1518.73 390.163 1506.32 390.806 1493.9 388.681C1480.06 386.304 1471.93 376.908 1471.23 361.78C1470.5 345.981 1470.64 330.125 1470.42 314.298C1470.42 312.928 1470.42 311.558 1470.42 310.104C1463.54 310.104 1457.05 310.02 1450.57 310.159C1448.19 310.215 1447.24 309.544 1447.33 307.027C1447.49 301.91 1447.49 296.765 1447.3 291.648C1447.19 288.935 1448.19 288.32 1450.74 288.376C1457.11 288.544 1463.51 288.432 1470.42 288.432V270.983C1470.42 263.293 1470.42 263.376 1478.16 262.454C1482.89 261.894 1487.59 260.916 1492.28 260.161C1493.4 259.965 1494.52 259.825 1495.94 259.629C1496.06 260.832 1496.22 261.727 1496.22 262.594C1496.22 270.172 1496.34 277.75 1496.17 285.3C1496.11 287.789 1496.84 288.46 1499.3 288.46C1509.67 288.376 1520.02 288.46 1530.39 288.572C1532.68 288.572 1534.97 288.795 1537.52 288.907C1537.52 295.395 1537.46 301.575 1537.52 307.727C1537.52 310.327 1535.73 310.02 1534.16 310.02C1523.46 310.048 1512.75 310.048 1502.01 310.076C1500.28 310.076 1498.55 310.076 1496.08 310.076Z"
            fill="black"
    />
    <path
            d="M927.664 360.885C935.101 363.038 941.895 365.835 948.94 366.814C956.797 367.904 964.904 367.541 972.873 367.317C975.836 367.233 979.303 366.534 979.806 362.311C980.309 358.173 979.023 355.348 974.578 353.503C968.259 350.874 961.661 348.889 955.315 346.344C949.527 343.995 943.516 341.842 938.26 338.57C920.926 327.832 923.498 302.581 939.798 293.074C950.422 286.866 962.053 285.58 973.879 286.53C981.707 287.145 989.424 289.075 997.196 290.445C999.796 290.892 1000.91 292.095 1000.24 295.059C999.125 299.925 998.371 304.874 997.672 309.824C997.28 312.62 996.246 313.347 993.534 312.313C983.581 308.565 973.264 306.916 962.696 308.062C959.648 308.398 956.377 309.74 953.945 311.558C950.618 314.018 950.646 317.626 953.973 320.114C957.272 322.575 961.046 324.561 964.876 326.127C971.754 328.951 978.94 331.02 985.761 333.928C993.282 337.144 999.713 341.758 1003.18 349.672C1008.41 361.584 1003.96 375.874 992.835 382.641C984.391 387.758 975.025 389.073 965.436 389.744C952.016 390.694 939.323 387.786 926.937 382.893C924.449 381.914 923.694 380.795 924.393 377.943C925.791 372.35 926.629 366.59 927.692 360.857L927.664 360.885Z"
            fill="black"
    />
    <path
            d="M1218.26 363.067C1219.38 369.498 1220.53 375.65 1221.42 381.802C1221.53 382.585 1220.5 384.011 1219.69 384.375C1206.8 389.856 1193.46 391.925 1179.88 387.814C1168.16 384.291 1162.54 375.035 1160.19 363.654C1159.24 359.012 1158.8 354.202 1158.77 349.448C1158.63 322.072 1158.71 294.696 1158.68 267.319C1158.68 266.313 1158.6 265.278 1158.52 263.852C1150.8 263.852 1143.28 263.852 1135.73 263.852C1130.03 263.852 1130.75 264.271 1130.73 258.763C1130.7 254.093 1130.67 249.451 1130.61 244.781C1130.61 243.243 1130.67 242.068 1132.77 242.096C1149.65 242.18 1166.54 242.18 1183.43 242.208C1183.65 242.208 1183.87 242.32 1184.35 242.46C1184.43 243.103 1184.6 243.886 1184.6 244.641C1184.55 280.043 1184.46 315.472 1184.38 350.874C1184.38 351.909 1184.38 352.972 1184.43 354.006C1184.85 362.451 1188.99 366.702 1197.46 367.345C1203.61 367.792 1207.58 366.981 1218.26 363.011V363.067Z"
            fill="black"
    />
    <path
            d="M1281.42 357.194C1283.57 351.602 1285.92 346.065 1287.88 340.388C1293.58 323.806 1299.09 307.14 1304.77 290.557C1305.05 289.69 1306.16 288.516 1306.92 288.516C1314.8 288.376 1322.69 288.432 1330.96 288.432C1330.77 289.83 1330.74 290.725 1330.49 291.564C1320.79 323.582 1307.73 354.23 1293.22 384.319C1292.02 386.808 1290.4 387.954 1287.49 387.758C1282.96 387.451 1278.4 387.367 1273.87 387.535C1270.96 387.647 1269.37 386.584 1268.28 383.983C1260.82 366.087 1252.99 348.33 1245.91 330.265C1241.05 317.85 1237.25 304.986 1232.97 292.319C1232.61 291.256 1232.41 290.138 1231.99 288.404C1234.48 288.404 1236.49 288.404 1238.53 288.404C1244.46 288.404 1250.41 288.292 1256.34 288.516C1257.4 288.544 1259.03 289.802 1259.36 290.837C1266.16 311.698 1272.81 332.614 1279.49 353.531C1279.88 354.733 1280.25 355.936 1280.64 357.138C1280.92 357.166 1281.2 357.194 1281.48 357.222L1281.42 357.194Z"
            fill="black"
    />
    <path
            d="M1244.74 523.242C1232.35 519.048 1220.5 518.516 1208.59 521.313C1198.83 523.606 1192.43 529.897 1190.75 539.713C1189.72 545.781 1189.52 552.324 1190.61 558.392C1192.82 570.78 1202.21 577.631 1216.47 578.414C1226.51 578.974 1236.49 578.834 1246.25 575.897C1246.86 575.702 1247.59 575.814 1248.46 575.758C1249.6 582.022 1250.83 588.173 1251.64 594.353C1251.76 595.22 1249.88 597.01 1248.68 597.29C1242.78 598.604 1236.86 599.974 1230.84 600.477C1220.39 601.372 1209.9 601.261 1199.64 598.52C1178.17 592.788 1165.14 577.128 1163.74 554.897C1162.77 539.265 1165.51 524.612 1177.02 512.951C1186.92 502.941 1199.36 498.55 1213.15 497.628C1224.72 496.845 1236.16 497.683 1247.26 501.514C1249.63 502.325 1250.41 503.108 1249.6 505.681C1247.81 511.414 1246.36 517.23 1244.71 523.242H1244.74Z"
            fill="black"
    />
    <path
            d="M1669.65 341.199C1669.65 327.105 1669.68 313.012 1669.62 298.918C1669.62 296.401 1670.24 294.919 1672.89 294.024C1696.04 286.279 1719.53 284.824 1743.46 289.69C1746.81 290.389 1748.21 291.368 1747.21 295.087C1745.78 300.456 1744.72 305.965 1743.91 311.474C1743.52 314.074 1742.48 314.326 1740.22 314.046C1731.35 313.04 1722.46 311.921 1713.54 311.53C1708.85 311.306 1704.07 312.452 1699.34 312.984C1696.99 313.263 1696.07 314.494 1696.1 316.982C1696.21 338.99 1696.18 360.997 1696.21 383.032C1696.21 387.674 1696.21 387.646 1691.6 387.59C1685.53 387.506 1679.49 387.311 1673.45 387.479C1670.6 387.562 1669.62 386.78 1669.65 383.815C1669.79 369.61 1669.71 355.404 1669.71 341.199H1669.65Z"
            fill="black"
    />
    <path
            d="M965.1 600.84C954.085 600.785 946.284 592.955 946.256 581.909C946.256 571.758 954.923 563.677 965.715 563.789C976.06 563.901 984.056 572.206 983.944 582.692C983.832 593.262 975.92 600.896 965.128 600.84H965.1Z"
            fill="black"
    />
    <defs>
        <clipPath id="clip0_334_1613">
            <rect
                    width="610"
                    height="576"
                    fill="white"
                    transform="translate(150.814 150.209)"
            />
        </clipPath>
    </defs>
</svg>
